# xmcd
#
# Track frame offsets: 
#        150
#        37104
#        62274
#        87002
#        114975
#        144308
#        183008
#        221982
#        241138
#        262046
#        284004
#        321741
#
# Disc length: 4757 seconds
#
# Revision: 1
# Processed by: cddbd v1.5.2PL0 Copyright (c) Steve Scherf et al.
# Submitted via: ExactAudioCopy v0.99pb5
#
DISCID=b212930c
DTITLE=James Herriot - All Creatures Great and Small
DYEAR=1972
DGENRE=Audiobook
TTITLE0=GS 0301
TTITLE1=GS 0302
TTITLE2=GS 0303
TTITLE3=GS 0304
TTITLE4=GS 0304
TTITLE5=GS 0306
TTITLE6=GS 0307
TTITLE7=GS 0308
TTITLE8=GS 0309
TTITLE9=GS 0310
TTITLE10=GS 0311
TTITLE11=GS 0312
EXTD=All Creatures Great and Small 12 CDs\nby James Harriot read by Chri
EXTD=stopherTimothy\nAudio Renassance - Jungle - Country
EXTT0=
EXTT1=
EXTT2=
EXTT3=
EXTT4=
EXTT5=
EXTT6=
EXTT7=
EXTT8=
EXTT9=
EXTT10=
EXTT11=
PLAYORDER=
